<?xml version="1.0" encoding="UTF-8"?>
<svg version="1.1" xmlns="http://www.w3.org/2000/svg" width="26" height="26">
<path d="M0 0 C8.58 0 17.16 0 26 0 C26.0825 2.866875 26.165 5.73375 26.25 8.6875 C26.28641602 9.58170654 26.32283203 10.47591309 26.36035156 11.3972168 C26.41566596 15.37494657 26.30953521 17.4925762 24.19140625 20.96484375 C20.30559298 24.57359369 16.74082283 26.03054075 11.4375 25.9375 C6.2702287 24.52824419 2.97598872 22.46398308 0 18 C-0.22705078 16.00708008 -0.22705078 16.00708008 -0.1953125 13.76953125 C-0.19031738 13.04612549 -0.18532227 12.32271973 -0.18017578 11.57739258 C-0.16196777 10.66497803 -0.14375977 9.75256348 -0.125 8.8125 C-0.08375 5.904375 -0.0425 2.99625 0 0 Z " fill="#F55837" transform="translate(0,0)"/>
<path d="M0 0 C2.01822917 0.06510417 4.03645833 0.13020833 6.0546875 0.1953125 C6.34765625 6.25 6.34765625 6.25 6.0546875 8.1953125 C2.83095073 10.34447035 1.78765076 10.57818053 -1.9453125 10.1953125 C-3.9453125 8.1953125 -3.9453125 8.1953125 -4.1953125 5.1953125 C-3.91874762 1.87653392 -3.53131274 0.35454947 0 0 Z " fill="#FDDFD9" transform="translate(11.9453125,4.8046875)"/>
<path d="M0 0 C2.97 0 5.94 0 9 0 C8.67 1.32 8.34 2.64 8 4 C5.03 4 2.06 4 -1 4 C-0.67 2.68 -0.34 1.36 0 0 Z " fill="#FCDAD3" transform="translate(9,16)"/>
</svg>
