<?xml version="1.0" encoding="UTF-8"?>
<svg version="1.1" xmlns="http://www.w3.org/2000/svg" width="200" height="200">
<path d="M0 0 C66 0 132 0 200 0 C200 66 200 132 200 200 C134 200 68 200 0 200 C0 134 0 68 0 0 Z " fill="#163347" transform="translate(0,0)"/>
<path d="M0 0 C4.54231447 3.11434135 8.82750063 6.49164528 12.984375 10.1015625 C8.62117326 13.01036366 4.23034932 14.1015625 -0.953125 14.1015625 C-4.65965537 12.89126687 -7.29367994 10.94314724 -10.47265625 8.72265625 C-15.03837926 5.8120955 -19.93641627 3.92852278 -25.015625 2.1015625 C-25.881875 1.77929688 -26.748125 1.45703125 -27.640625 1.125 C-45.63272848 -4.47138102 -66.27701177 -1.74397141 -82.765625 6.7890625 C-100.65029586 16.65996304 -113.26689933 32.44452829 -119.453125 51.9765625 C-124.49101858 73.04411749 -120.74727304 93.72519335 -110.11523438 112.35546875 C-107.965065 115.76976967 -105.33324998 118.66208223 -102.484375 121.5 C-101.015625 123.1015625 -101.015625 123.1015625 -101.015625 125.1015625 C-100.14744141 125.49794922 -100.14744141 125.49794922 -99.26171875 125.90234375 C-96.91872839 127.15329687 -95.11085462 128.58406664 -93.078125 130.2890625 C-76.26522235 143.45414124 -57.75476733 147.15766284 -36.90625 144.87011719 C-22.06304894 142.73565281 -7.33918031 136.09115363 2.984375 125.1015625 C3.644375 125.1015625 4.304375 125.1015625 4.984375 125.1015625 C5.38076172 124.23144531 5.38076172 124.23144531 5.78515625 123.34375 C7.03346702 121.00977482 8.45964782 119.24048646 10.171875 117.2265625 C20.76755839 103.71706618 25.28132323 88.32557619 25.421875 71.3515625 C25.43210693 70.40547119 25.44233887 69.45937988 25.45288086 68.48461914 C25.36745475 61.62125825 23.95443525 55.6477988 21.984375 49.1015625 C20.59375903 43.85089593 21.32940627 41.48823976 23.921875 36.7265625 C24.48777344 35.66695312 25.05367187 34.60734375 25.63671875 33.515625 C26.08144531 32.71898437 26.52617187 31.92234375 26.984375 31.1015625 C30.31523499 33.78613622 31.54462477 37.35375372 33.046875 41.2265625 C33.30275391 41.85304687 33.55863281 42.47953125 33.82226562 43.125 C41.05593431 61.42302054 40.74774726 85.02657857 33.12255859 103.14990234 C29.32908411 111.71333071 24.78696264 119.72854976 18.984375 127.1015625 C18.44296875 127.79507813 17.9015625 128.48859375 17.34375 129.203125 C4.60817626 144.61673995 -15.32263963 155.07873665 -35.015625 158.1015625 C-60.37599621 159.9675981 -81.43726621 155.26691822 -102.015625 140.1015625 C-102.75296875 139.59238281 -103.4903125 139.08320313 -104.25 138.55859375 C-104.83265625 138.07777344 -105.4153125 137.59695312 -106.015625 137.1015625 C-106.015625 136.4415625 -106.015625 135.7815625 -106.015625 135.1015625 C-106.87414062 134.75351562 -106.87414062 134.75351562 -107.75 134.3984375 C-120.99393021 126.81742917 -128.6411437 105.85800906 -132.57763672 92.14355469 C-138.73201417 68.08603284 -132.56682027 45.18557629 -120.4453125 24.41015625 C-116.92611308 18.88135935 -112.76472524 13.62604313 -108.015625 9.1015625 C-107.355625 9.1015625 -106.695625 9.1015625 -106.015625 9.1015625 C-106.015625 8.4415625 -106.015625 7.7815625 -106.015625 7.1015625 C-94.91125281 -2.92060392 -80.33817365 -9.19216395 -66.015625 -12.8984375 C-65.12037109 -13.15995605 -65.12037109 -13.15995605 -64.20703125 -13.42675781 C-41.68049378 -18.27538419 -18.98676289 -11.95280669 0 0 Z " fill="#F90862" transform="translate(148.015625,27.8984375)"/>
<path d="M0 0 C0.45692212 12.48879953 0.45692212 12.48879953 0.6159668 18.67602539 C0.63480423 19.40594193 0.65364166 20.13585846 0.67304993 20.88789368 C0.71155215 22.3827477 0.74970532 23.87761076 0.78752136 25.3724823 C0.91979731 30.19893263 1.17438721 35.00231757 1.48828125 39.8203125 C2.46090943 57.96263145 2.46090943 57.96263145 -1.18359375 62.35546875 C-4.33201111 64.7847257 -7.38504838 66.35394154 -11 68 C-12.73055803 69.0478745 -14.40646785 70.15775402 -16.08740234 71.28320312 C-17.8385859 72.45495459 -19.61153241 73.58438446 -21.39453125 74.70703125 C-24.96150988 76.96608566 -28.48753835 79.2822417 -32 81.625 C-32.89235352 82.21921753 -32.89235352 82.21921753 -33.80273438 82.82543945 C-37.81389403 85.50797993 -41.79582745 88.23103595 -45.76953125 90.96875 C-46.76791016 91.65501465 -47.76628906 92.3412793 -48.79492188 93.04833984 C-50.78736705 94.41951611 -52.77701517 95.79476674 -54.76367188 97.17431641 C-55.67310547 97.79999512 -56.58253906 98.42567383 -57.51953125 99.0703125 C-58.74313354 99.91746826 -58.74313354 99.91746826 -59.99145508 100.78173828 C-62 102 -62 102 -64 102 C-64.36545456 95.01165354 -64.63213567 88.02314494 -64.85351562 81.02880859 C-64.9483011 78.21987759 -65.07675064 75.41453644 -65.22460938 72.60791016 C-65.42370116 68.80417157 -65.56430874 65.00165988 -65.67163086 61.1942749 C-65.72355505 59.699028 -65.79510121 58.20432397 -65.88696289 56.71099854 C-66.58322946 45.07326065 -66.58322946 45.07326065 -63.27807617 40.74511719 C-60.9505293 39.00091364 -58.57241749 37.55237826 -56.02252197 36.15786743 C-52.70638372 34.25942157 -49.5699919 32.09549142 -46.396698 29.9695282 C-43.53683655 28.05569296 -40.66275649 26.16530938 -37.78320312 24.28125 C-36.80230713 23.63929687 -35.82141113 22.99734375 -34.81079102 22.3359375 C-33.82135498 21.68882813 -32.83191895 21.04171875 -31.8125 20.375 C-27.87952368 17.8024952 -23.94887548 15.22648572 -20.01953125 12.6484375 C-19.13288284 12.07016205 -18.24623444 11.4918866 -17.3327179 10.89608765 C-12.60314666 7.79273026 -8.03285258 4.58664478 -3.59306335 1.07876587 C-2 0 -2 0 0 0 Z " fill="#1A3247" transform="translate(109,33)"/>
<path d="M0 0 C0.78221924 0.31912354 1.56443848 0.63824707 2.37036133 0.96704102 C3.2865625 1.3313623 4.20276367 1.69568359 5.14672852 2.07104492 C6.14349609 2.52398926 7.14026367 2.97693359 8.16723633 3.44360352 C9.28348389 3.94641846 10.39973145 4.4492334 11.54980469 4.96728516 C12.72808838 5.50345459 13.90637207 6.03962402 15.12036133 6.59204102 C23.79314741 10.50947258 32.47472081 14.36674645 41.34399414 17.82299805 C44.73820303 19.1719785 47.57237883 20.60383274 50.37036133 22.96704102 C33.7349988 34.85530344 33.7349988 34.85530344 25.15942383 40.20532227 C21.77584747 42.34256728 18.4469596 44.55500076 15.12036133 46.77954102 C14.49178223 47.19945312 13.86320312 47.61936523 13.21557617 48.05200195 C9.91466585 50.25931289 6.61805383 52.47293307 3.32348633 54.68969727 C2.66123047 55.134021 1.99897461 55.57834473 1.31665039 56.03613281 C0.06199996 56.87796989 -1.19135778 57.72173833 -2.44311523 58.56787109 C-3.59370171 59.33926512 -4.75100163 60.1007543 -5.9152832 60.85131836 C-7.08699067 61.61387933 -8.23873906 62.40777219 -9.37133789 63.22729492 C-11.12182617 64.40454102 -11.12182617 64.40454102 -14.62963867 65.96704102 C-18.13745117 65.25610352 -18.13745117 65.25610352 -21.75463867 63.59204102 C-22.41077148 63.30039063 -23.0669043 63.00874023 -23.74291992 62.70825195 C-25.71939268 61.82227988 -27.67461634 60.89921685 -29.62963867 59.96704102 C-30.63768555 59.50555664 -31.64573242 59.04407227 -32.68432617 58.56860352 C-34.7058112 57.64097245 -36.7225284 56.7029017 -38.73510742 55.75610352 C-47.60940253 51.63091423 -56.64615757 47.8468733 -65.62963867 43.96704102 C-64.46644348 40.47745544 -63.75290966 40.10247659 -60.76269531 38.15478516 C-59.93995621 37.61314224 -59.1172171 37.07149933 -58.26954651 36.51344299 C-56.91831947 35.64162636 -56.91831947 35.64162636 -55.53979492 34.75219727 C-54.14101357 33.8357267 -54.14101357 33.8357267 -52.713974 32.90074158 C-49.71165086 30.93596475 -46.70214707 28.98251903 -43.69213867 27.02954102 C-40.75468857 25.11282273 -37.81873975 23.19382477 -34.88314819 21.27426147 C-32.94911306 20.01164135 -31.01310001 18.75204565 -29.07510376 17.49551392 C-24.45470284 14.49558592 -19.86926379 11.46182135 -15.34790039 8.31420898 C-14.52696396 7.74778183 -13.70602753 7.18135468 -12.86021423 6.59776306 C-11.32989709 5.53757278 -9.80776521 4.46543037 -8.29566956 3.37940979 C-3.33510753 -0.04180109 -3.33510753 -0.04180109 0 0 Z " fill="#FC0762" transform="translate(114.629638671875,96.032958984375)"/>
<path d="M0 0 C0.45692212 12.48879953 0.45692212 12.48879953 0.6159668 18.67602539 C0.63480423 19.40594193 0.65364166 20.13585846 0.67304993 20.88789368 C0.71155215 22.3827477 0.74970532 23.87761076 0.78752136 25.3724823 C0.91979731 30.19893263 1.17438721 35.00231757 1.48828125 39.8203125 C2.46090943 57.96263145 2.46090943 57.96263145 -1.18359375 62.35546875 C-4.33201111 64.7847257 -7.38504838 66.35394154 -11 68 C-12.73055803 69.0478745 -14.40646785 70.15775402 -16.08740234 71.28320312 C-17.8385859 72.45495459 -19.61153241 73.58438446 -21.39453125 74.70703125 C-24.96150988 76.96608566 -28.48753835 79.2822417 -32 81.625 C-32.89235352 82.21921753 -32.89235352 82.21921753 -33.80273438 82.82543945 C-37.81389403 85.50797993 -41.79582745 88.23103595 -45.76953125 90.96875 C-46.76791016 91.65501465 -47.76628906 92.3412793 -48.79492188 93.04833984 C-50.78736705 94.41951611 -52.77701517 95.79476674 -54.76367188 97.17431641 C-55.67310547 97.79999512 -56.58253906 98.42567383 -57.51953125 99.0703125 C-58.74313354 99.91746826 -58.74313354 99.91746826 -59.99145508 100.78173828 C-62 102 -62 102 -64 102 C-64.36545456 95.01165354 -64.63213567 88.02314494 -64.85351562 81.02880859 C-64.9483011 78.21987759 -65.07675064 75.41453644 -65.22460938 72.60791016 C-65.42370116 68.80417157 -65.56430874 65.00165988 -65.67163086 61.1942749 C-65.72355505 59.699028 -65.79510121 58.20432397 -65.88696289 56.71099854 C-66.58322946 45.07326065 -66.58322946 45.07326065 -63.27807617 40.74511719 C-60.9505293 39.00091364 -58.57241749 37.55237826 -56.02252197 36.15786743 C-52.70638372 34.25942157 -49.5699919 32.09549142 -46.396698 29.9695282 C-43.53683655 28.05569296 -40.66275649 26.16530938 -37.78320312 24.28125 C-36.80230713 23.63929687 -35.82141113 22.99734375 -34.81079102 22.3359375 C-33.82135498 21.68882813 -32.83191895 21.04171875 -31.8125 20.375 C-27.87952368 17.8024952 -23.94887548 15.22648572 -20.01953125 12.6484375 C-19.13288284 12.07016205 -18.24623444 11.4918866 -17.3327179 10.89608765 C-12.60314666 7.79273026 -8.03285258 4.58664478 -3.59306335 1.07876587 C-2 0 -2 0 0 0 Z M-11.26953125 12.20703125 C-15.84492951 15.61710358 -20.53241052 18.51511168 -25.49906921 21.32221985 C-46.78868172 31.88884454 -46.78868172 31.88884454 -61.95703125 48.83105469 C-63.59362113 56.34889708 -62.4873571 63.29885606 -60.72412109 70.70507812 C-59.65505634 75.56957507 -59.59777297 80.35183311 -59.5 85.3125 C-59.35727107 87.87720109 -59.17870522 90.43749476 -59 93 C-49.14610012 88.28825017 -40.17996815 81.48665649 -31.11669922 75.41503906 C-28.84243554 73.89466625 -26.56420916 72.38037101 -24.28515625 70.8671875 C-23.48924072 70.33826904 -22.6933252 69.80935059 -21.87329102 69.2644043 C-20.33395813 68.24161332 -18.79411248 67.21959347 -17.25366211 66.19848633 C-15.83774326 65.25662101 -14.42679351 64.30723285 -13.02148438 63.34960938 C-11.68177719 62.45517685 -10.31775663 61.59606554 -8.93164062 60.77539062 C-6.72821904 59.47318061 -6.72821904 59.47318061 -4 57 C-3.10930945 53.80375226 -3.10930945 53.80375226 -3.5 50.125 C-3.52900391 49.42898682 -3.55800781 48.73297363 -3.58789062 48.01586914 C-3.6580564 46.3619861 -3.74345203 44.70871429 -3.83984375 43.05615234 C-4.03310789 39.36822474 -4.145225 35.67952772 -4.25 31.98828125 C-4.47071231 24.32436584 -4.72694446 16.66225802 -5 9 C-7.89837604 9 -8.98919987 10.42147795 -11.26953125 12.20703125 Z " fill="#F00961" transform="translate(109,33)"/>
<path d="M0 0 C-5.02965798 10.80445048 -10.19672958 21.53987046 -15.49212646 32.21643066 C-16.12283251 33.48973289 -16.75145259 34.76407047 -17.37799072 36.03942871 C-18.26554482 37.84434304 -19.16188905 39.64492679 -20.05859375 41.4453125 C-20.57736084 42.49219238 -21.09612793 43.53907227 -21.63061523 44.61767578 C-23 47 -23 47 -25 48 C-25.875 45.59375 -25.875 45.59375 -26.75 43.1875 C-27.31074219 41.68703125 -27.31074219 41.68703125 -27.8828125 40.15625 C-29 37 -29 37 -29.8046875 34.03125 C-31.37084255 28.60191251 -32.76067498 25.60241667 -37.6875 22.625 C-39.44627672 21.7260116 -41.21752023 20.85102382 -43 20 C-44.71358661 19.05109195 -46.4223229 18.09334717 -48.125 17.125 C-49.41569363 16.4148952 -50.70697648 15.70585342 -52 15 C-52 14.34 -52 13.68 -52 13 C-45.56248049 11.20749122 -45.56248049 11.20749122 -42.46606445 10.35083008 C-37.79756365 9.05876341 -33.13220651 7.75656715 -28.47132874 6.43722534 C-25.86276664 5.70000213 -23.25270067 4.96819233 -20.64242554 4.23706055 C-18.70738206 3.69308916 -16.77420961 3.14247637 -14.84106445 2.59179688 C-13.63925537 2.25599609 -12.43744629 1.92019531 -11.19921875 1.57421875 C-10.12502686 1.27088623 -9.05083496 0.96755371 -7.9440918 0.6550293 C-5.18019185 0.04009078 -2.81794757 -0.13124152 0 0 Z " fill="#F80862" transform="translate(180,39)"/>
<path d="M0 0 C0.63488739 3.50598923 0.86699038 6.52177823 0 10 C-2.19140625 11.8359375 -2.19140625 11.8359375 -4.9375 13.4375 C-7.76090991 14.98283588 -7.76090991 14.98283588 -10 17 C-10.59886883 19.68729815 -10.59886883 19.68729815 -10.4375 22.5625 C-10.3984375 25.3984375 -10.3984375 25.3984375 -11 28 C-14.35794293 30.76474166 -17.96496744 32.42454248 -22 34 C-22 31.03 -22 28.06 -22 25 C-23.12019531 25.71027344 -24.24039063 26.42054687 -25.39453125 27.15234375 C-26.86708274 28.08089533 -28.33974476 29.00927163 -29.8125 29.9375 C-30.55048828 30.40607422 -31.28847656 30.87464844 -32.04882812 31.35742188 C-32.76103516 31.80537109 -33.47324219 32.25332031 -34.20703125 32.71484375 C-34.8616333 33.12855225 -35.51623535 33.54226074 -36.19067383 33.96850586 C-38 35 -38 35 -41 36 C-41.95381808 30.3499526 -42.89336239 24.53444391 -41 19 C-36.96442392 14.05481788 -30.80724425 10.53408542 -25 8 C-24.34 8 -23.68 8 -23 8 C-23 13.28 -23 18.56 -23 24 C-21.55625 23.01 -20.1125 22.02 -18.625 21 C-14.25 18 -14.25 18 -12 18 C-12.17402344 16.93072266 -12.17402344 16.93072266 -12.3515625 15.83984375 C-12.65272352 12.64323469 -12.70767841 10.14242915 -12 7 C-8.94564125 3.75751046 -4.66198719 0 0 0 Z " fill="#F90762" transform="translate(98,66)"/>
<path d="M0 0 C0.63488739 3.50598923 0.86699038 6.52177823 0 10 C-2.19140625 11.8359375 -2.19140625 11.8359375 -4.9375 13.4375 C-8.99913717 15.76262693 -8.99913717 15.76262693 -10.88671875 19.875 C-11.10040947 22.62145124 -11.16896151 25.25189077 -11 28 C-11.33 28 -11.66 28 -12 28 C-12 25.03 -12 22.06 -12 19 C-12.66 18.67 -13.32 18.34 -14 18 C-13.34 18 -12.68 18 -12 18 C-12.11601563 17.28714844 -12.23203125 16.57429688 -12.3515625 15.83984375 C-12.65272352 12.64323469 -12.70767841 10.14242915 -12 7 C-8.94564125 3.75751046 -4.66198719 0 0 0 Z " fill="#E20C5F" transform="translate(98,66)"/>
</svg>
